<svg width="473" height="141" viewBox="0 0 473 141" fill="none" xmlns="http://www.w3.org/2000/svg">
<path d="M59.1159 126H30.8841C29.2914 126 28 124.881 28 123.5C28 122.119 29.2914 121 30.8841 121H59.1159C60.7086 121 62 122.119 62 123.5C62 124.881 60.7086 126 59.1159 126Z" fill="white"/>
<path d="M54.4552 39H29.5448C28.1395 39 27 37.8806 27 36.5C27 35.1194 28.1395 34 29.5448 34H54.4552C55.8605 34 57 35.1194 57 36.5C57 37.8806 55.8605 39 54.4552 39Z" fill="white"/>
<path d="M39 58.049L39 38.951C39 37.8736 40.1194 37 41.5 37C42.8806 37 44 37.8736 44 38.951L44 58.049C44 59.1264 42.8806 60 41.5 60C40.1194 60 39 59.1264 39 58.049Z" fill="white"/>
<path d="M48 69.9641L48 50.0359C48 48.9116 49.1194 48 50.5 48C51.8806 48 53 48.9116 53 50.0359L53 69.9641C53 71.0884 51.8806 72 50.5 72C49.1194 72 48 71.0884 48 69.9641Z" fill="white"/>
<path d="M35.46 47L59.54 47C60.8985 47 62 48.1194 62 49.5C62 50.8806 60.8985 52 59.54 52L35.46 52C34.1015 52 33 50.8806 33 49.5C33 48.1194 34.1015 47 35.46 47Z" fill="white"/>
<path d="M35.46 57L59.54 57C60.8985 57 62 58.1194 62 59.5C62 60.8806 60.8985 62 59.54 62L35.46 62C34.1015 62 33 60.8806 33 59.5C33 58.1194 34.1015 57 35.46 57Z" fill="white"/>
<path d="M48 67L59.4943 67C60.878 67 62 68.1194 62 69.5C62 70.8806 60.878 72 59.4943 72L48 72C48 70.2463 48 71.347 48 69.9664C48 68.5858 48 68.903 48 67Z" fill="white"/>
<path d="M59.1159 134H30.8841C29.2914 134 28 132.881 28 131.5C28 130.119 29.2914 129 30.8841 129H59.1159C60.7086 129 62 130.119 62 131.5C62 132.881 60.7086 134 59.1159 134Z" fill="white"/>
<path d="M38.2066 133C37.4533 133 36.8818 133.647 37.021 134.347C37.7706 138.133 41.2792 141 45.5003 141C49.7213 141 53.23 138.133 53.9795 134.347C54.1168 133.647 53.5454 133 52.7939 133H38.2066Z" fill="white"/>
<path d="M44.4918 5.79076C42.3917 5.79076 40.2972 5.95511 38.2501 6.28564C19.4428 9.32979 5.79066 25.3928 5.79066 44.4806C5.79066 59.0284 11.5284 67.9354 17.6021 77.3653C23.4804 86.4926 29.5577 95.9314 30.6662 110.683C30.7465 111.752 31.6468 112.59 32.7169 112.59H56.2813C57.3678 112.59 58.2498 111.77 58.3302 110.683C59.4405 95.9314 65.5196 86.4926 71.3979 77.3653C77.4698 67.9354 83.2094 59.0284 83.2094 44.4806C83.2094 25.8594 69.9462 9.86302 51.6739 6.44633C49.3292 6.00989 46.9096 5.79076 44.4918 5.79076ZM56.2813 118.382H32.7169C28.6355 118.382 25.1988 115.19 24.892 111.117C23.8931 97.8311 18.4731 89.4132 12.7318 80.5011C6.47363 70.7821 0 60.732 0 44.4806C0 22.5363 15.6974 4.06872 37.3242 0.569855C42.3826 -0.248251 47.7113 -0.184326 52.7368 0.754304C73.75 4.68231 89 23.0732 89 44.4806C89 60.732 82.5282 70.7821 76.2682 80.5011C70.5251 89.4132 65.1051 97.8311 64.1062 111.117C63.8013 115.19 60.3627 118.382 56.2813 118.382Z" fill="white"/>
<path d="M22.0283 72C21.1114 72.0007 20.2054 71.5899 19.6229 70.8168C3.11949 48.8766 15.2844 28.2846 15.8118 27.4185C16.6423 26.0491 18.4652 25.5921 19.8802 26.3977C21.2933 27.2016 21.7674 28.961 20.9405 30.3297C20.4848 31.0894 10.2824 48.6242 24.4301 67.4296C25.3966 68.714 25.1045 70.5139 23.7759 71.4489C23.2485 71.8207 22.6366 72 22.0283 72Z" fill="white"/>
<path d="M146.808 105V47.496H125.112V37.8H179.544V47.496H157.848V105H146.808ZM190.039 105V56.04H200.887V105H190.039ZM195.511 49.704C193.399 49.704 191.607 49.032 190.135 47.688C188.727 46.344 188.023 44.68 188.023 42.696C188.023 40.648 188.727 38.952 190.135 37.608C191.607 36.264 193.399 35.592 195.511 35.592C197.623 35.592 199.383 36.264 200.791 37.608C202.199 38.952 202.903 40.648 202.903 42.696C202.903 44.68 202.199 46.344 200.791 47.688C199.383 49.032 197.623 49.704 195.511 49.704ZM215.678 82.152C215.678 70.568 215.518 61.864 215.198 56.04H225.47L226.526 64.104H227.198C229.054 61.224 231.39 59.016 234.206 57.48C237.022 55.88 240.126 55.08 243.518 55.08C249.15 55.08 253.534 56.84 256.67 60.36C259.806 63.816 261.374 68.968 261.374 75.816V105H250.43V77.352C250.43 73.128 249.502 69.96 247.646 67.848C245.79 65.672 243.166 64.584 239.774 64.584C237.15 64.584 234.814 65.224 232.766 66.504C230.782 67.72 229.246 69.416 228.158 71.592C227.07 73.768 226.526 76.2 226.526 78.888V105H215.678V82.152ZM275.629 105V37.8H286.477V79.272L306.445 56.04H319.693L298.477 79.272L320.269 105H306.541L286.477 80.52V105H275.629ZM350.245 105.96C345.317 105.96 341.029 104.84 337.381 102.6C333.733 100.36 330.949 97.32 329.029 93.48C327.109 89.64 326.149 85.32 326.149 80.52C326.149 75.72 327.077 71.4 328.933 67.56C330.853 63.72 333.637 60.68 337.285 58.44C340.933 56.2 345.221 55.08 350.149 55.08C354.629 55.08 358.565 56.072 361.957 58.056C365.349 59.976 367.973 62.76 369.829 66.408C371.685 70.056 372.613 74.312 372.613 79.176C372.613 80.904 372.517 82.472 372.325 83.88H332.677V76.2H366.181L362.341 81.576C362.405 81.128 362.437 80.712 362.437 80.328C362.437 79.88 362.437 79.432 362.437 78.984C362.437 73.992 361.317 70.152 359.077 67.464C356.901 64.776 353.925 63.432 350.149 63.432C345.989 63.432 342.693 64.968 340.261 68.04C337.893 71.048 336.709 75.208 336.709 80.52C336.709 85.896 337.925 90.088 340.357 93.096C342.853 96.104 346.181 97.608 350.341 97.608C352.965 97.608 355.205 97 357.061 95.784C358.981 94.568 360.549 92.648 361.765 90.024L371.461 92.904C369.669 97.256 366.981 100.52 363.397 102.696C359.877 104.872 355.493 105.96 350.245 105.96ZM384.938 82.152C384.938 70.568 384.778 61.864 384.458 56.04H394.73L396.17 66.888L395.018 65.832H396.746C398.09 62.312 400.01 59.656 402.506 57.864C405.066 56.008 408.01 55.08 411.338 55.08C412.746 55.08 413.93 55.112 414.89 55.176V65.736C413.866 65.608 412.65 65.544 411.242 65.544C406.89 65.544 403.21 67.016 400.202 69.96C397.258 72.84 395.786 77.48 395.786 83.88V105H384.938V82.152ZM439.035 105.96C434.235 105.96 430.363 104.648 427.419 102.024C424.539 99.4 423.099 95.88 423.099 91.464C423.099 86.728 424.795 83.016 428.187 80.328C431.643 77.64 436.731 76.104 443.451 75.72L456.699 74.952V82.344L445.659 83.112C441.627 83.368 438.587 84.104 436.539 85.32C434.555 86.472 433.563 88.296 433.563 90.792C433.563 92.776 434.267 94.376 435.675 95.592C437.147 96.808 439.163 97.416 441.723 97.416C444.283 97.416 446.619 96.744 448.731 95.4C450.843 94.056 452.507 92.2 453.723 89.832C454.939 87.464 455.547 84.776 455.547 81.768V72.84C455.547 69.768 454.555 67.464 452.571 65.928C450.587 64.328 448.059 63.528 444.987 63.528C441.915 63.528 439.387 64.264 437.403 65.736C435.419 67.208 433.979 69.32 433.083 72.072L423.675 69.288C424.635 64.744 427.035 61.256 430.875 58.824C434.715 56.328 439.419 55.08 444.987 55.08C451.643 55.08 456.795 56.616 460.443 59.688C464.155 62.696 466.011 66.952 466.011 72.456V79.08C466.011 90.536 466.171 99.176 466.491 105H457.083L456.123 96.456H455.355C453.819 99.528 451.675 101.896 448.923 103.56C446.171 105.16 442.875 105.96 439.035 105.96Z" fill="white"/>
</svg>
